<mxfile host="app.diagrams.net" modified="2024-06-02T20:43:12.521Z" agent="Mozilla/5.0 (Windows NT 10.0; Win64; x64) AppleWebKit/537.36 (KHTML, like Gecko) Chrome/125.0.0.0 Safari/537.36" etag="RbGD_j8OGpRVX1C9XN69" version="24.4.13" type="github">
  <diagram name="Page-1" id="b3hOjfD_a7RjoW0-Ufts">
    <mxGraphModel dx="2580" dy="478" grid="1" gridSize="10" guides="1" tooltips="1" connect="1" arrows="1" fold="1" page="1" pageScale="1" pageWidth="850" pageHeight="1100" math="0" shadow="0">
      <root>
        <mxCell id="0" />
        <mxCell id="1" parent="0" />
        <mxCell id="gDPOnKbqwhcxXd4-0qDF-1" value="" style="verticalLabelPosition=bottom;html=1;verticalAlign=top;align=center;strokeColor=none;fillColor=#000000;shape=mxgraph.azure.computer;pointerEvents=1;fontColor=#000000;" vertex="1" parent="1">
          <mxGeometry x="-1630" y="510" width="160" height="145" as="geometry" />
        </mxCell>
        <mxCell id="gDPOnKbqwhcxXd4-0qDF-2" value="" style="image;html=1;image=img/lib/clip_art/computers/Server_Rack_128x128.png" vertex="1" parent="1">
          <mxGeometry x="-1220" y="460" width="160" height="195" as="geometry" />
        </mxCell>
        <mxCell id="gDPOnKbqwhcxXd4-0qDF-3" value="&lt;font style=&quot;font-size: 10px;&quot;&gt;www.foobar.com&lt;/font&gt;&lt;div style=&quot;font-size: 10px;&quot;&gt;&lt;br&gt;&lt;/div&gt;" style="text;strokeColor=none;fillColor=none;html=1;fontSize=24;fontStyle=1;verticalAlign=middle;align=center;" vertex="1" parent="1">
          <mxGeometry x="-1660" y="517.5" width="220" height="80" as="geometry" />
        </mxCell>
        <mxCell id="gDPOnKbqwhcxXd4-0qDF-14" value="http://" style="text;html=1;align=center;verticalAlign=middle;resizable=0;points=[];autosize=1;strokeColor=none;fillColor=none;fontSize=14;" vertex="1" parent="1">
          <mxGeometry x="-1340" y="567.5" width="60" height="30" as="geometry" />
        </mxCell>
        <mxCell id="gDPOnKbqwhcxXd4-0qDF-15" value="" style="shape=image;html=1;verticalAlign=top;verticalLabelPosition=bottom;labelBackgroundColor=#ffffff;imageAspect=0;aspect=fixed;image=https://cdn0.iconfinder.com/data/icons/phosphor-regular-vol-4/256/triangle-128.png" vertex="1" parent="1">
          <mxGeometry x="-1640" y="220" width="128" height="128" as="geometry" />
        </mxCell>
        <mxCell id="gDPOnKbqwhcxXd4-0qDF-19" value="" style="edgeStyle=none;orthogonalLoop=1;jettySize=auto;html=1;rounded=0;" edge="1" parent="1">
          <mxGeometry width="100" relative="1" as="geometry">
            <mxPoint x="-1415" y="564.5" as="sourcePoint" />
            <mxPoint x="-1215" y="564.5" as="targetPoint" />
            <Array as="points" />
          </mxGeometry>
        </mxCell>
        <mxCell id="gDPOnKbqwhcxXd4-0qDF-20" value="8.8.8.8." style="text;html=1;align=center;verticalAlign=middle;resizable=0;points=[];autosize=1;strokeColor=none;fillColor=none;" vertex="1" parent="1">
          <mxGeometry x="-1345" y="534.5" width="60" height="30" as="geometry" />
        </mxCell>
        <mxCell id="gDPOnKbqwhcxXd4-0qDF-21" value="" style="edgeStyle=none;orthogonalLoop=1;jettySize=auto;html=1;rounded=0;" edge="1" parent="1">
          <mxGeometry width="100" relative="1" as="geometry">
            <mxPoint x="-1580" y="472" as="sourcePoint" />
            <mxPoint x="-1580" y="380" as="targetPoint" />
            <Array as="points" />
          </mxGeometry>
        </mxCell>
        <mxCell id="gDPOnKbqwhcxXd4-0qDF-22" value="" style="edgeStyle=none;orthogonalLoop=1;jettySize=auto;html=1;rounded=0;" edge="1" parent="1">
          <mxGeometry width="100" relative="1" as="geometry">
            <mxPoint x="-1536" y="380" as="sourcePoint" />
            <mxPoint x="-1536.5" y="475.5" as="targetPoint" />
            <Array as="points" />
          </mxGeometry>
        </mxCell>
        <mxCell id="gDPOnKbqwhcxXd4-0qDF-24" value="8.8.8.8." style="text;html=1;align=center;verticalAlign=middle;resizable=0;points=[];autosize=1;strokeColor=none;fillColor=none;rotation=-90;" vertex="1" parent="1">
          <mxGeometry x="-1550" y="410" width="60" height="30" as="geometry" />
        </mxCell>
        <mxCell id="gDPOnKbqwhcxXd4-0qDF-25" value="www.foobar.com" style="text;html=1;align=center;verticalAlign=middle;resizable=0;points=[];autosize=1;strokeColor=none;fillColor=none;rotation=-90;" vertex="1" parent="1">
          <mxGeometry x="-1660" y="420" width="110" height="30" as="geometry" />
        </mxCell>
        <mxCell id="gDPOnKbqwhcxXd4-0qDF-26" value="&lt;b&gt;&lt;font style=&quot;font-size: 17px;&quot;&gt;Server&lt;/font&gt;&lt;/b&gt;&lt;div&gt;&lt;br&gt;&lt;/div&gt;" style="text;html=1;align=center;verticalAlign=middle;resizable=0;points=[];autosize=1;strokeColor=none;fillColor=none;" vertex="1" parent="1">
          <mxGeometry x="-1180" y="420" width="80" height="50" as="geometry" />
        </mxCell>
        <mxCell id="gDPOnKbqwhcxXd4-0qDF-27" value="" style="endArrow=classic;html=1;rounded=0;edgeStyle=orthogonalEdgeStyle;curved=1;entryX=-0.011;entryY=0.708;entryDx=0;entryDy=0;entryPerimeter=0;" edge="1" parent="1">
          <mxGeometry width="50" height="50" relative="1" as="geometry">
            <mxPoint x="-1541" y="290" as="sourcePoint" />
            <mxPoint x="-1483.025" y="238.99199999999996" as="targetPoint" />
            <Array as="points">
              <mxPoint x="-1541" y="220" />
              <mxPoint x="-1483" y="220" />
            </Array>
          </mxGeometry>
        </mxCell>
        <mxCell id="gDPOnKbqwhcxXd4-0qDF-33" value="&lt;span style=&quot;color: rgb(51, 51, 51); font-family: aktiv-grotesk, sans-serif; font-size: 14px; text-align: left; text-wrap: wrap; background-color: rgb(255, 255, 255);&quot;&gt;web/NGINX&lt;/span&gt;" style="text;html=1;align=center;verticalAlign=middle;resizable=0;points=[];autosize=1;strokeColor=none;fillColor=none;" vertex="1" parent="1">
          <mxGeometry x="-1010" y="470" width="100" height="30" as="geometry" />
        </mxCell>
        <mxCell id="gDPOnKbqwhcxXd4-0qDF-35" value="APP/python&lt;div&gt;&lt;br&gt;&lt;/div&gt;" style="text;html=1;align=center;verticalAlign=middle;resizable=0;points=[];autosize=1;strokeColor=none;fillColor=none;" vertex="1" parent="1">
          <mxGeometry x="-1005" y="522.5" width="90" height="40" as="geometry" />
        </mxCell>
        <mxCell id="gDPOnKbqwhcxXd4-0qDF-36" value="Data-base/Mysql" style="text;html=1;align=center;verticalAlign=middle;resizable=0;points=[];autosize=1;strokeColor=none;fillColor=none;" vertex="1" parent="1">
          <mxGeometry x="-1000" y="562.5" width="110" height="30" as="geometry" />
        </mxCell>
        <mxCell id="gDPOnKbqwhcxXd4-0qDF-38" value="" style="edgeStyle=orthogonalEdgeStyle;rounded=0;orthogonalLoop=1;jettySize=auto;html=1;" edge="1" parent="1" source="gDPOnKbqwhcxXd4-0qDF-37">
          <mxGeometry relative="1" as="geometry">
            <mxPoint x="-950" y="600" as="targetPoint" />
            <Array as="points">
              <mxPoint x="-950" y="620" />
              <mxPoint x="-950" y="620" />
            </Array>
          </mxGeometry>
        </mxCell>
        <mxCell id="gDPOnKbqwhcxXd4-0qDF-37" value="codebase&lt;div&gt;&lt;br&gt;&lt;/div&gt;" style="text;html=1;align=center;verticalAlign=middle;resizable=0;points=[];autosize=1;strokeColor=none;fillColor=none;" vertex="1" parent="1">
          <mxGeometry x="-990" y="623" width="80" height="40" as="geometry" />
        </mxCell>
        <mxCell id="gDPOnKbqwhcxXd4-0qDF-40" value="" style="verticalLabelPosition=bottom;shadow=0;dashed=0;align=center;html=1;verticalAlign=top;strokeWidth=1;shape=mxgraph.mockup.markup.line;strokeColor=#000000;direction=north;" vertex="1" parent="1">
          <mxGeometry x="-1040" y="483" width="20" height="97" as="geometry" />
        </mxCell>
        <mxCell id="gDPOnKbqwhcxXd4-0qDF-42" value="" style="verticalLabelPosition=bottom;shadow=0;dashed=0;align=center;html=1;verticalAlign=top;strokeWidth=1;shape=mxgraph.mockup.markup.line;strokeColor=#000000;" vertex="1" parent="1">
          <mxGeometry x="-1030" y="475" width="20" height="20" as="geometry" />
        </mxCell>
        <mxCell id="gDPOnKbqwhcxXd4-0qDF-44" value="" style="verticalLabelPosition=bottom;shadow=0;dashed=0;align=center;html=1;verticalAlign=top;strokeWidth=1;shape=mxgraph.mockup.markup.line;strokeColor=#000000;" vertex="1" parent="1">
          <mxGeometry x="-1030" y="567.5" width="20" height="20" as="geometry" />
        </mxCell>
        <mxCell id="gDPOnKbqwhcxXd4-0qDF-45" value="" style="verticalLabelPosition=bottom;shadow=0;dashed=0;align=center;html=1;verticalAlign=top;strokeWidth=1;shape=mxgraph.mockup.markup.line;strokeColor=#000000;" vertex="1" parent="1">
          <mxGeometry x="-1050" y="523" width="20" height="20" as="geometry" />
        </mxCell>
        <mxCell id="gDPOnKbqwhcxXd4-0qDF-46" value="" style="shape=table;html=1;whiteSpace=wrap;startSize=0;container=1;collapsible=0;childLayout=tableLayout;columnLines=0;rowLines=0;fontSize=16;strokeColor=default;shadow=0;swimlaneLine=0;" vertex="1" parent="1">
          <mxGeometry x="-1480" y="210" width="360" height="100" as="geometry" />
        </mxCell>
        <mxCell id="gDPOnKbqwhcxXd4-0qDF-47" value="" style="shape=tableRow;horizontal=1;startSize=0;swimlaneHead=0;swimlaneBody=0;top=0;left=0;bottom=0;right=0;collapsible=0;dropTarget=0;fillColor=none;points=[[0,0.5],[1,0.5]];portConstraint=eastwest;fontSize=16;strokeColor=inherit;verticalAlign=middle;" vertex="1" parent="gDPOnKbqwhcxXd4-0qDF-46">
          <mxGeometry width="360" height="33" as="geometry" />
        </mxCell>
        <mxCell id="gDPOnKbqwhcxXd4-0qDF-48" value="Type" style="shape=partialRectangle;html=1;whiteSpace=wrap;connectable=0;fillColor=none;top=0;left=0;bottom=0;right=0;overflow=hidden;fontSize=12;strokeColor=inherit;" vertex="1" parent="gDPOnKbqwhcxXd4-0qDF-47">
          <mxGeometry width="121" height="33" as="geometry">
            <mxRectangle width="121" height="33" as="alternateBounds" />
          </mxGeometry>
        </mxCell>
        <mxCell id="gDPOnKbqwhcxXd4-0qDF-49" value="Domain name" style="shape=partialRectangle;html=1;whiteSpace=wrap;connectable=0;fillColor=none;top=0;left=0;bottom=0;right=0;overflow=hidden;fontSize=12;strokeColor=inherit;" vertex="1" parent="gDPOnKbqwhcxXd4-0qDF-47">
          <mxGeometry x="121" width="118" height="33" as="geometry">
            <mxRectangle width="118" height="33" as="alternateBounds" />
          </mxGeometry>
        </mxCell>
        <mxCell id="gDPOnKbqwhcxXd4-0qDF-50" value="IP Address&amp;nbsp; &amp;nbsp; &amp;nbsp; &amp;nbsp; &amp;nbsp; TTL" style="shape=partialRectangle;html=1;whiteSpace=wrap;connectable=0;fillColor=none;top=0;left=0;bottom=0;right=0;overflow=hidden;fontSize=12;strokeColor=inherit;" vertex="1" parent="gDPOnKbqwhcxXd4-0qDF-47">
          <mxGeometry x="239" width="121" height="33" as="geometry">
            <mxRectangle width="121" height="33" as="alternateBounds" />
          </mxGeometry>
        </mxCell>
        <mxCell id="gDPOnKbqwhcxXd4-0qDF-51" value="" style="shape=tableRow;horizontal=0;startSize=0;swimlaneHead=0;swimlaneBody=0;top=0;left=0;bottom=0;right=0;collapsible=0;dropTarget=0;fillColor=none;points=[[0,0.5],[1,0.5]];portConstraint=eastwest;fontSize=16;strokeColor=inherit;" vertex="1" parent="gDPOnKbqwhcxXd4-0qDF-46">
          <mxGeometry y="33" width="360" height="34" as="geometry" />
        </mxCell>
        <mxCell id="gDPOnKbqwhcxXd4-0qDF-52" value="A" style="shape=partialRectangle;html=1;whiteSpace=wrap;connectable=0;fillColor=none;top=0;left=0;bottom=0;right=0;overflow=hidden;fontSize=12;strokeColor=inherit;" vertex="1" parent="gDPOnKbqwhcxXd4-0qDF-51">
          <mxGeometry width="121" height="34" as="geometry">
            <mxRectangle width="121" height="34" as="alternateBounds" />
          </mxGeometry>
        </mxCell>
        <mxCell id="gDPOnKbqwhcxXd4-0qDF-53" value="foobar.com" style="shape=partialRectangle;html=1;whiteSpace=wrap;connectable=0;fillColor=none;top=0;left=0;bottom=0;right=0;overflow=hidden;fontSize=12;strokeColor=inherit;" vertex="1" parent="gDPOnKbqwhcxXd4-0qDF-51">
          <mxGeometry x="121" width="118" height="34" as="geometry">
            <mxRectangle width="118" height="34" as="alternateBounds" />
          </mxGeometry>
        </mxCell>
        <mxCell id="gDPOnKbqwhcxXd4-0qDF-54" value="8.8.8.8&amp;nbsp; &amp;nbsp; &amp;nbsp; &amp;nbsp; &amp;nbsp; &amp;nbsp; &amp;nbsp; &amp;nbsp;24hrs" style="shape=partialRectangle;html=1;whiteSpace=wrap;connectable=0;fillColor=none;top=0;left=0;bottom=0;right=0;overflow=hidden;fontSize=12;strokeColor=inherit;" vertex="1" parent="gDPOnKbqwhcxXd4-0qDF-51">
          <mxGeometry x="239" width="121" height="34" as="geometry">
            <mxRectangle width="121" height="34" as="alternateBounds" />
          </mxGeometry>
        </mxCell>
        <mxCell id="gDPOnKbqwhcxXd4-0qDF-55" value="" style="shape=tableRow;horizontal=0;startSize=0;swimlaneHead=0;swimlaneBody=0;top=0;left=0;bottom=0;right=0;collapsible=0;dropTarget=0;fillColor=none;points=[[0,0.5],[1,0.5]];portConstraint=eastwest;fontSize=16;strokeColor=inherit;" vertex="1" parent="gDPOnKbqwhcxXd4-0qDF-46">
          <mxGeometry y="67" width="360" height="33" as="geometry" />
        </mxCell>
        <mxCell id="gDPOnKbqwhcxXd4-0qDF-56" value="Cnmae" style="shape=partialRectangle;html=1;whiteSpace=wrap;connectable=0;fillColor=none;top=0;left=0;bottom=0;right=0;overflow=hidden;fontSize=12;strokeColor=inherit;" vertex="1" parent="gDPOnKbqwhcxXd4-0qDF-55">
          <mxGeometry width="121" height="33" as="geometry">
            <mxRectangle width="121" height="33" as="alternateBounds" />
          </mxGeometry>
        </mxCell>
        <mxCell id="gDPOnKbqwhcxXd4-0qDF-57" value="www.foobar.com" style="shape=partialRectangle;html=1;whiteSpace=wrap;connectable=0;fillColor=none;top=0;left=0;bottom=0;right=0;overflow=hidden;fontSize=12;strokeColor=inherit;" vertex="1" parent="gDPOnKbqwhcxXd4-0qDF-55">
          <mxGeometry x="121" width="118" height="33" as="geometry">
            <mxRectangle width="118" height="33" as="alternateBounds" />
          </mxGeometry>
        </mxCell>
        <mxCell id="gDPOnKbqwhcxXd4-0qDF-58" value="foobar.com&amp;nbsp; &amp;nbsp; &amp;nbsp; &amp;nbsp; &amp;nbsp; &amp;nbsp; &amp;nbsp; &amp;nbsp; &amp;nbsp;" style="shape=partialRectangle;html=1;whiteSpace=wrap;connectable=0;fillColor=none;top=0;left=0;bottom=0;right=0;overflow=hidden;fontSize=12;strokeColor=inherit;" vertex="1" parent="gDPOnKbqwhcxXd4-0qDF-55">
          <mxGeometry x="239" width="121" height="33" as="geometry">
            <mxRectangle width="121" height="33" as="alternateBounds" />
          </mxGeometry>
        </mxCell>
        <mxCell id="gDPOnKbqwhcxXd4-0qDF-61" value="" style="endArrow=classic;html=1;rounded=0;edgeStyle=orthogonalEdgeStyle;curved=1;exitX=0.781;exitY=0.859;exitDx=0;exitDy=0;exitPerimeter=0;" edge="1" parent="1" source="gDPOnKbqwhcxXd4-0qDF-15">
          <mxGeometry width="50" height="50" relative="1" as="geometry">
            <mxPoint x="-1521" y="320" as="sourcePoint" />
            <mxPoint x="-1471" y="310" as="targetPoint" />
            <Array as="points">
              <mxPoint x="-1540" y="340" />
              <mxPoint x="-1471" y="340" />
            </Array>
          </mxGeometry>
        </mxCell>
        <mxCell id="gDPOnKbqwhcxXd4-0qDF-62" value="DNS&lt;div&gt;&lt;br&gt;&lt;/div&gt;" style="text;html=1;align=center;verticalAlign=middle;resizable=0;points=[];autosize=1;strokeColor=none;fillColor=none;" vertex="1" parent="1">
          <mxGeometry x="-1600" y="270" width="50" height="40" as="geometry" />
        </mxCell>
      </root>
    </mxGraphModel>
  </diagram>
</mxfile>
